<svg xmlns="http://www.w3.org/2000/svg" xmlns:xlink="http://www.w3.org/1999/xlink" width="500" zoomAndPan="magnify" viewBox="0 0 375 374.999991" height="500" preserveAspectRatio="xMidYMid meet" version="1.0"><defs><g/></defs><g fill="#000000" fill-opacity="1"><g transform="translate(93.480467, 268.920465)"><g><path d="M 10.65625 0.359375 C 8.800781 0.359375 7.15625 -0.0390625 5.71875 -0.84375 C 4.28125 -1.644531 3.15625 -2.753906 2.34375 -4.171875 C 1.53125 -5.597656 1.125 -7.238281 1.125 -9.09375 C 1.125 -10.945312 1.523438 -12.582031 2.328125 -14 C 3.128906 -15.425781 4.242188 -16.539062 5.671875 -17.34375 C 7.109375 -18.15625 8.742188 -18.5625 10.578125 -18.5625 C 12.054688 -18.5625 13.414062 -18.300781 14.65625 -17.78125 C 15.90625 -17.257812 16.96875 -16.523438 17.84375 -15.578125 C 18.71875 -14.640625 19.335938 -13.53125 19.703125 -12.25 L 15.265625 -12.25 C 14.828125 -13.039062 14.203125 -13.65625 13.390625 -14.09375 C 12.585938 -14.539062 11.675781 -14.765625 10.65625 -14.765625 C 9.601562 -14.765625 8.664062 -14.519531 7.84375 -14.03125 C 7.03125 -13.550781 6.394531 -12.882812 5.9375 -12.03125 C 5.476562 -11.1875 5.25 -10.207031 5.25 -9.09375 C 5.25 -8.007812 5.472656 -7.039062 5.921875 -6.1875 C 6.378906 -5.332031 7.015625 -4.660156 7.828125 -4.171875 C 8.640625 -3.679688 9.601562 -3.4375 10.71875 -3.4375 C 12.050781 -3.4375 13.15625 -3.769531 14.03125 -4.4375 C 14.914062 -5.113281 15.488281 -6.007812 15.75 -7.125 L 9.859375 -7.125 L 9.859375 -10.328125 L 20.125 -10.328125 C 20.226562 -8.765625 20.078125 -7.332031 19.671875 -6.03125 C 19.265625 -4.726562 18.640625 -3.597656 17.796875 -2.640625 C 16.953125 -1.679688 15.925781 -0.941406 14.71875 -0.421875 C 13.519531 0.0976562 12.164062 0.359375 10.65625 0.359375 Z M 10.65625 0.359375 "/></g></g></g><g fill="#000000" fill-opacity="1"><g transform="translate(114.69011, 268.920465)"><g><path d="M 2.1875 0 L 2.1875 -18.203125 L 5.6875 -18.203125 L 12.171875 -8.765625 L 18.609375 -18.203125 L 22.09375 -18.203125 L 22.09375 0 L 17.984375 0 L 17.984375 -10.953125 L 13.578125 -4.5 L 10.71875 -4.5 L 6.296875 -10.96875 L 6.296875 0 Z M 2.1875 0 "/></g></g></g><g fill="#000000" fill-opacity="1"><g transform="translate(138.966838, 268.920465)"><g><path d="M 10.65625 0.359375 C 8.800781 0.359375 7.15625 -0.0390625 5.71875 -0.84375 C 4.28125 -1.644531 3.15625 -2.753906 2.34375 -4.171875 C 1.53125 -5.597656 1.125 -7.238281 1.125 -9.09375 C 1.125 -10.945312 1.523438 -12.582031 2.328125 -14 C 3.128906 -15.425781 4.242188 -16.539062 5.671875 -17.34375 C 7.109375 -18.15625 8.742188 -18.5625 10.578125 -18.5625 C 12.054688 -18.5625 13.414062 -18.300781 14.65625 -17.78125 C 15.90625 -17.257812 16.96875 -16.523438 17.84375 -15.578125 C 18.71875 -14.640625 19.335938 -13.53125 19.703125 -12.25 L 15.265625 -12.25 C 14.828125 -13.039062 14.203125 -13.65625 13.390625 -14.09375 C 12.585938 -14.539062 11.675781 -14.765625 10.65625 -14.765625 C 9.601562 -14.765625 8.664062 -14.519531 7.84375 -14.03125 C 7.03125 -13.550781 6.394531 -12.882812 5.9375 -12.03125 C 5.476562 -11.1875 5.25 -10.207031 5.25 -9.09375 C 5.25 -8.007812 5.472656 -7.039062 5.921875 -6.1875 C 6.378906 -5.332031 7.015625 -4.660156 7.828125 -4.171875 C 8.640625 -3.679688 9.601562 -3.4375 10.71875 -3.4375 C 12.050781 -3.4375 13.15625 -3.769531 14.03125 -4.4375 C 14.914062 -5.113281 15.488281 -6.007812 15.75 -7.125 L 9.859375 -7.125 L 9.859375 -10.328125 L 20.125 -10.328125 C 20.226562 -8.765625 20.078125 -7.332031 19.671875 -6.03125 C 19.265625 -4.726562 18.640625 -3.597656 17.796875 -2.640625 C 16.953125 -1.679688 15.925781 -0.941406 14.71875 -0.421875 C 13.519531 0.0976562 12.164062 0.359375 10.65625 0.359375 Z M 10.65625 0.359375 "/></g></g></g><g fill="#000000" fill-opacity="1"><g transform="translate(160.176481, 268.920465)"><g><path d="M 7.40625 0.359375 C 5.644531 0.359375 4.253906 -0.195312 3.234375 -1.3125 C 2.222656 -2.425781 1.71875 -3.929688 1.71875 -5.828125 L 1.71875 -13.65625 L 5.671875 -13.65625 L 5.671875 -6.21875 C 5.671875 -5.207031 5.90625 -4.425781 6.375 -3.875 C 6.851562 -3.320312 7.507812 -3.046875 8.34375 -3.046875 C 9.25 -3.046875 9.96875 -3.351562 10.5 -3.96875 C 11.039062 -4.59375 11.3125 -5.445312 11.3125 -6.53125 L 11.3125 -13.65625 L 15.265625 -13.65625 L 15.265625 0 L 12.328125 0 L 11.90625 -1.53125 C 11.375 -0.894531 10.71875 -0.421875 9.9375 -0.109375 C 9.15625 0.203125 8.3125 0.359375 7.40625 0.359375 Z M 7.40625 0.359375 "/></g></g></g><g fill="#000000" fill-opacity="1"><g transform="translate(177.409314, 268.920465)"><g><path d="M 1.96875 0 L 1.96875 -13.65625 L 5.921875 -13.65625 L 5.921875 0 Z M 1.40625 -18.0625 C 1.40625 -18.789062 1.640625 -19.382812 2.109375 -19.84375 C 2.585938 -20.3125 3.203125 -20.546875 3.953125 -20.546875 C 4.710938 -20.546875 5.328125 -20.3125 5.796875 -19.84375 C 6.265625 -19.382812 6.5 -18.789062 6.5 -18.0625 C 6.5 -17.34375 6.265625 -16.75 5.796875 -16.28125 C 5.328125 -15.820312 4.710938 -15.59375 3.953125 -15.59375 C 3.203125 -15.59375 2.585938 -15.820312 2.109375 -16.28125 C 1.640625 -16.75 1.40625 -17.34375 1.40625 -18.0625 Z M 1.40625 -18.0625 "/></g></g></g><g fill="#000000" fill-opacity="1"><g transform="translate(185.310944, 268.920465)"><g><path d="M 1.96875 0 L 1.96875 -19.234375 L 5.921875 -19.234375 L 5.921875 0 Z M 1.96875 0 "/></g></g></g><g fill="#000000" fill-opacity="1"><g transform="translate(193.212574, 268.920465)"><g><path d="M 1.96875 0 L 1.96875 -19.234375 L 5.921875 -19.234375 L 5.921875 0 Z M 1.96875 0 "/></g></g></g><g fill="#000000" fill-opacity="1"><g transform="translate(201.114204, 268.920465)"><g><path d="M 8.421875 0.359375 C 6.960938 0.359375 5.675781 0.0546875 4.5625 -0.546875 C 3.445312 -1.148438 2.578125 -1.992188 1.953125 -3.078125 C 1.328125 -4.160156 1.015625 -5.414062 1.015625 -6.84375 C 1.015625 -8.257812 1.328125 -9.503906 1.953125 -10.578125 C 2.585938 -11.648438 3.460938 -12.488281 4.578125 -13.09375 C 5.703125 -13.707031 7 -14.015625 8.46875 -14.015625 C 10.03125 -14.015625 11.378906 -13.664062 12.515625 -12.96875 C 13.648438 -12.28125 14.515625 -11.3125 15.109375 -10.0625 C 15.710938 -8.8125 15.972656 -7.351562 15.890625 -5.6875 L 4.9375 -5.6875 C 5.125 -4.757812 5.539062 -4.046875 6.1875 -3.546875 C 6.832031 -3.054688 7.601562 -2.8125 8.5 -2.8125 C 9.15625 -2.8125 9.753906 -2.9375 10.296875 -3.1875 C 10.847656 -3.4375 11.289062 -3.785156 11.625 -4.234375 L 15.625 -4.234375 C 15.03125 -2.796875 14.101562 -1.671875 12.84375 -0.859375 C 11.582031 -0.046875 10.109375 0.359375 8.421875 0.359375 Z M 4.96875 -8.1875 L 12.0625 -8.1875 C 11.832031 -9.019531 11.410156 -9.675781 10.796875 -10.15625 C 10.179688 -10.632812 9.414062 -10.875 8.5 -10.875 C 7.632812 -10.875 6.882812 -10.632812 6.25 -10.15625 C 5.613281 -9.675781 5.1875 -9.019531 4.96875 -8.1875 Z M 4.96875 -8.1875 "/></g></g></g><g fill="#000000" fill-opacity="1"><g transform="translate(217.983149, 268.920465)"><g><path d="M 1.96875 0 L 1.96875 -13.65625 L 4.90625 -13.65625 L 5.4375 -11.828125 C 5.882812 -12.472656 6.4375 -12.9375 7.09375 -13.21875 C 7.757812 -13.507812 8.59375 -13.65625 9.59375 -13.65625 L 11.078125 -13.65625 L 11.078125 -10.0625 L 9.5625 -10.0625 C 8.4375 -10.0625 7.546875 -9.753906 6.890625 -9.140625 C 6.242188 -8.535156 5.921875 -7.5 5.921875 -6.03125 L 5.921875 0 Z M 1.96875 0 "/></g></g></g><g fill="#000000" fill-opacity="1"><g transform="translate(229.939569, 268.920465)"><g><path d="M 8.625 5.765625 C 6.65625 5.765625 5.050781 5.3125 3.8125 4.40625 C 2.570312 3.507812 1.863281 2.273438 1.6875 0.703125 L 5.53125 0.703125 C 5.675781 1.296875 6.007812 1.753906 6.53125 2.078125 C 7.0625 2.410156 7.734375 2.578125 8.546875 2.578125 C 10.734375 2.578125 11.828125 1.46875 11.828125 -0.75 L 11.828125 -1.71875 C 11.273438 -1.28125 10.640625 -0.941406 9.921875 -0.703125 C 9.203125 -0.472656 8.4375 -0.359375 7.625 -0.359375 C 6.332031 -0.359375 5.1875 -0.648438 4.1875 -1.234375 C 3.195312 -1.816406 2.421875 -2.625 1.859375 -3.65625 C 1.296875 -4.6875 1.015625 -5.867188 1.015625 -7.203125 C 1.015625 -8.535156 1.296875 -9.710938 1.859375 -10.734375 C 2.421875 -11.753906 3.195312 -12.554688 4.1875 -13.140625 C 5.1875 -13.722656 6.332031 -14.015625 7.625 -14.015625 C 8.59375 -14.015625 9.488281 -13.851562 10.3125 -13.53125 C 11.132812 -13.207031 11.835938 -12.742188 12.421875 -12.140625 L 12.84375 -13.65625 L 15.78125 -13.65625 L 15.78125 -0.75 C 15.78125 0.601562 15.488281 1.769531 14.90625 2.75 C 14.332031 3.726562 13.503906 4.472656 12.421875 4.984375 C 11.347656 5.503906 10.082031 5.765625 8.625 5.765625 Z M 4.90625 -7.203125 C 4.90625 -6.140625 5.234375 -5.28125 5.890625 -4.625 C 6.554688 -3.96875 7.410156 -3.640625 8.453125 -3.640625 C 9.492188 -3.640625 10.347656 -3.96875 11.015625 -4.625 C 11.679688 -5.28125 12.015625 -6.140625 12.015625 -7.203125 C 12.015625 -8.242188 11.679688 -9.09375 11.015625 -9.75 C 10.347656 -10.40625 9.492188 -10.734375 8.453125 -10.734375 C 7.410156 -10.734375 6.554688 -10.40625 5.890625 -9.75 C 5.234375 -9.09375 4.90625 -8.242188 4.90625 -7.203125 Z M 4.90625 -7.203125 "/></g></g></g><g fill="#000000" fill-opacity="1"><g transform="translate(247.718239, 268.920465)"><g><path d="M 6.53125 0.265625 C 4.914062 0.265625 3.640625 -0.109375 2.703125 -0.859375 C 1.765625 -1.617188 1.296875 -2.660156 1.296875 -3.984375 C 1.296875 -5.242188 1.71875 -6.25 2.5625 -7 C 3.40625 -7.757812 4.535156 -8.140625 5.953125 -8.140625 L 10.890625 -8.140625 L 10.890625 -8.765625 C 10.890625 -9.441406 10.644531 -9.984375 10.15625 -10.390625 C 9.675781 -10.796875 9.046875 -11 8.265625 -11 C 7.628906 -11 7.082031 -10.847656 6.625 -10.546875 C 6.175781 -10.253906 5.890625 -9.867188 5.765625 -9.390625 L 1.96875 -9.390625 C 2.21875 -10.878906 2.890625 -12.019531 3.984375 -12.8125 C 5.085938 -13.613281 6.503906 -14.015625 8.234375 -14.015625 C 10.285156 -14.015625 11.882812 -13.5 13.03125 -12.46875 C 14.1875 -11.4375 14.765625 -10.019531 14.765625 -8.21875 L 14.765625 0 L 11.828125 0 L 11.390625 -1.59375 C 10.191406 -0.351562 8.570312 0.265625 6.53125 0.265625 Z M 5.203125 -4.140625 C 5.203125 -3.671875 5.40625 -3.289062 5.8125 -3 C 6.21875 -2.71875 6.757812 -2.578125 7.4375 -2.578125 C 8.425781 -2.578125 9.242188 -2.863281 9.890625 -3.4375 C 10.546875 -4.007812 10.890625 -4.753906 10.921875 -5.671875 L 7.171875 -5.671875 C 6.585938 -5.671875 6.113281 -5.53125 5.75 -5.25 C 5.382812 -4.976562 5.203125 -4.609375 5.203125 -4.140625 Z M 5.203125 -4.140625 "/></g></g></g><g fill="#000000" fill-opacity="1"><g transform="translate(264.197307, 268.920465)"><g><path d="M 1.96875 0 L 1.96875 -13.65625 L 4.90625 -13.65625 L 5.328125 -12.109375 C 5.878906 -12.753906 6.550781 -13.234375 7.34375 -13.546875 C 8.132812 -13.859375 8.976562 -14.015625 9.875 -14.015625 C 11.664062 -14.015625 13.066406 -13.457031 14.078125 -12.34375 C 15.085938 -11.238281 15.59375 -9.742188 15.59375 -7.859375 L 15.59375 0 L 11.640625 0 L 11.640625 -7.4375 C 11.640625 -8.4375 11.398438 -9.21875 10.921875 -9.78125 C 10.453125 -10.351562 9.789062 -10.640625 8.9375 -10.640625 C 8.039062 -10.640625 7.3125 -10.328125 6.75 -9.703125 C 6.195312 -9.078125 5.921875 -8.226562 5.921875 -7.15625 L 5.921875 0 Z M 1.96875 0 "/></g></g></g><path fill="#000000" d="M 137.144531 134.519531 C 124.761719 135.871094 114.335938 141.296875 106.824219 150.3125 C 104.464844 153.140625 101.652344 157.960938 100.207031 161.660156 C 98.921875 164.933594 97.785156 169.570312 97.402344 173.078125 C 96.726562 179.289062 97.207031 185.777344 98.734375 191.089844 C 100.878906 198.542969 104.117188 204.183594 109.328125 209.554688 C 116.652344 217.101562 125.898438 221.511719 137.117188 222.800781 C 140.601562 223.203125 146.441406 223.082031 149.792969 222.542969 C 159.914062 220.90625 168.886719 216.421875 175.867188 209.507812 L 177.53125 207.859375 L 177.652344 204.71875 C 177.71875 202.992188 177.75 195.222656 177.71875 187.460938 L 177.664062 173.347656 L 141.703125 173.347656 L 141.65625 181.121094 L 141.609375 188.898438 L 160.3125 188.898438 L 160.3125 199.867188 L 159.007812 200.828125 C 150.785156 206.898438 139.277344 207.867188 130.054688 203.265625 C 123.550781 200.019531 118.886719 194.609375 116.539062 187.570312 C 115.546875 184.605469 115.148438 181.996094 115.144531 178.472656 C 115.140625 174.726562 115.554688 172.273438 116.808594 168.550781 C 117.308594 167.0625 117.6875 165.816406 117.648438 165.777344 C 117.609375 165.734375 115.695312 165.394531 113.390625 165.011719 C 110.417969 164.523438 109.160156 164.378906 109.050781 164.519531 L 108.433594 165.285156 C 107.535156 166.410156 105.839844 166.691406 104.324219 165.972656 C 103.054688 165.371094 102.335938 163.671875 102.757812 162.261719 C 103.21875 160.726562 104.980469 159.585938 106.503906 159.832031 C 107.703125 160.027344 109.0625 161.253906 109.066406 162.140625 C 109.066406 162.308594 109.144531 162.496094 109.246094 162.558594 C 109.40625 162.65625 118.257812 164.089844 118.683594 164.082031 C 118.78125 164.082031 119.269531 163.457031 119.761719 162.691406 C 120.96875 160.820312 124.527344 157.273438 126.597656 155.875 C 130.753906 153.066406 135.128906 151.570312 140.351562 151.164062 C 148.933594 150.5 156.320312 153.191406 162.414062 159.195312 L 164.335938 161.089844 L 164.617188 160.664062 C 164.898438 160.234375 167.9375 156.308594 172.21875 150.839844 C 173.472656 149.238281 174.601562 147.753906 174.730469 147.539062 C 174.949219 147.175781 174.871094 147.0625 173.617188 145.890625 C 164.4375 137.324219 150.699219 133.042969 137.144531 134.519531 M 185.425781 135.976562 C 185.296875 136.101562 185.253906 221.871094 185.378906 222 C 185.421875 222.039062 189.542969 222.054688 194.542969 222.027344 L 203.628906 221.976562 L 203.605469 209.441406 C 203.554688 179.6875 203.632812 168.480469 203.886719 168.855469 C 204.019531 169.050781 205.203125 171.234375 206.515625 173.707031 C 207.832031 176.179688 209.332031 178.96875 209.851562 179.910156 C 210.371094 180.847656 211.886719 183.679688 213.21875 186.203125 C 219.050781 197.246094 222.9375 204.464844 223.148438 204.632812 C 223.289062 204.75 226.296875 204.796875 231.558594 204.765625 L 239.75 204.714844 L 242.671875 199.28125 C 244.277344 196.289062 246.296875 192.550781 247.160156 190.96875 C 248.019531 189.386719 249.476562 186.675781 250.394531 184.945312 C 251.3125 183.214844 253.035156 180.015625 254.226562 177.839844 C 255.414062 175.664062 257.023438 172.671875 257.792969 171.1875 L 259.199219 168.492188 L 259.203125 195.328125 L 259.207031 222.167969 L 277.277344 222.074219 L 277.324219 178.964844 L 277.367188 135.855469 L 256.777344 135.855469 L 254.371094 140.484375 C 250.929688 147.097656 247.492188 153.707031 244.058594 160.308594 C 239.71875 168.65625 233.121094 181.328125 232.15625 183.175781 L 231.433594 184.554688 L 229.800781 181.378906 C 227.753906 177.390625 221.707031 165.800781 216.46875 155.816406 C 214.261719 151.613281 211.019531 145.402344 209.265625 142.019531 L 206.074219 135.867188 L 195.808594 135.859375 C 190.164062 135.859375 185.492188 135.910156 185.425781 135.976562 M 195.945312 142.714844 C 193.765625 143.792969 193.53125 146.890625 195.515625 148.402344 C 196.0625 148.820312 196.328125 148.890625 197.339844 148.890625 L 198.519531 148.890625 L 200.152344 151.589844 C 201.050781 153.074219 202.417969 155.296875 203.195312 156.535156 C 203.96875 157.769531 206.585938 162.019531 209.011719 165.972656 C 211.433594 169.929688 214.265625 174.542969 215.304688 176.222656 C 216.339844 177.902344 217.5 179.808594 217.878906 180.453125 L 218.570312 181.628906 L 218.199219 182.34375 C 217.703125 183.296875 217.785156 184.832031 218.378906 185.699219 C 219.566406 187.429688 221.855469 187.765625 223.4375 186.433594 C 225.152344 184.988281 224.863281 182.121094 222.890625 181.011719 C 222.328125 180.695312 221.875 180.59375 221.09375 180.605469 L 220.046875 180.621094 L 219.421875 179.589844 C 219.082031 179.023438 217.285156 176.09375 215.425781 173.078125 C 212.125 167.714844 208.824219 162.351562 205.527344 156.984375 C 204.125 154.707031 202.3125 151.761719 201.496094 150.433594 L 200.007812 148.019531 L 200.324219 147.488281 C 200.789062 146.699219 200.933594 145.839844 200.738281 144.984375 C 200.257812 142.835938 197.929688 141.734375 195.945312 142.714844 M 196.355469 144.570312 C 195.347656 145.574219 196.070312 147.183594 197.53125 147.183594 C 199.011719 147.183594 199.625 145.652344 198.585938 144.550781 C 198.03125 143.957031 196.957031 143.96875 196.355469 144.570312 M 263.914062 145.761719 C 262.320312 146.570312 261.660156 148.53125 262.441406 150.144531 C 262.660156 150.597656 262.796875 151.074219 262.746094 151.207031 C 262.695312 151.339844 259.015625 157.550781 254.570312 165.003906 C 250.128906 172.460938 245.414062 180.382812 244.101562 182.605469 C 242.785156 184.832031 241.605469 186.769531 241.472656 186.910156 C 241.3125 187.085938 240.941406 187.15625 240.347656 187.125 C 239.242188 187.066406 238.207031 187.558594 237.503906 188.480469 C 237.058594 189.0625 237 189.292969 237 190.441406 C 237 191.625 237.050781 191.808594 237.550781 192.433594 C 238.882812 194.105469 241.269531 194.289062 242.597656 192.828125 C 243.617188 191.707031 243.832031 190.289062 243.1875 188.957031 L 242.8125 188.179688 L 246.355469 182.203125 C 248.511719 178.5625 250.667969 174.921875 252.824219 171.277344 C 255.535156 166.699219 257.117188 164.035156 262.355469 155.246094 L 264.332031 151.925781 L 265.320312 151.929688 C 266.65625 151.933594 267.574219 151.464844 268.222656 150.441406 C 269.980469 147.667969 266.851562 144.269531 263.914062 145.761719 M 264.808594 147.285156 C 263.269531 147.933594 263.738281 150.242188 265.410156 150.242188 C 266.695312 150.242188 267.394531 148.714844 266.582031 147.679688 C 266.148438 147.125 265.523438 146.988281 264.808594 147.285156 M 192.765625 157.597656 C 190.640625 158.125 189.507812 160.101562 190.238281 162.015625 C 190.550781 162.828125 191.328125 163.632812 192.082031 163.917969 L 192.496094 164.078125 L 192.496094 186.601562 C 192.492188 198.992188 192.433594 209.210938 192.359375 209.308594 C 192.289062 209.410156 191.886719 209.714844 191.46875 209.984375 C 190.085938 210.878906 189.609375 212.617188 190.320312 214.164062 C 190.726562 215.050781 191.097656 215.390625 192.203125 215.878906 C 193.203125 216.320312 194 216.253906 195.105469 215.632812 C 197.089844 214.519531 197.160156 211.300781 195.226562 210 C 194.902344 209.78125 194.558594 209.574219 194.464844 209.542969 C 194.351562 209.507812 194.289062 201.257812 194.285156 186.832031 L 194.28125 164.175781 L 194.78125 163.929688 C 196.082031 163.285156 196.957031 161.796875 196.757812 160.566406 C 196.4375 158.605469 194.507812 157.167969 192.765625 157.597656 M 192.304688 159.757812 C 191.648438 160.414062 191.613281 161.175781 192.207031 161.871094 C 192.554688 162.269531 192.792969 162.371094 193.398438 162.371094 C 194.917969 162.371094 195.539062 160.640625 194.382812 159.636719 C 193.726562 159.066406 192.949219 159.109375 192.304688 159.757812 M 105.46875 161.515625 C 104.851562 161.742188 104.390625 162.359375 104.390625 162.960938 C 104.390625 163.761719 104.644531 164.199219 105.292969 164.539062 C 106.929688 165.382812 108.3125 163.132812 106.921875 161.886719 C 106.378906 161.402344 106.027344 161.3125 105.46875 161.515625 M 220.175781 182.773438 C 219.476562 183.46875 219.457031 184.34375 220.121094 185.007812 C 220.796875 185.683594 221.664062 185.65625 222.382812 184.9375 C 222.855469 184.460938 222.914062 184.296875 222.824219 183.722656 C 222.601562 182.316406 221.148438 181.796875 220.175781 182.773438 M 238.996094 189.453125 C 238.273438 190.308594 238.457031 191.363281 239.410156 191.859375 C 240.167969 192.25 240.574219 192.207031 241.210938 191.671875 C 241.660156 191.296875 241.765625 191.066406 241.765625 190.492188 C 241.765625 188.960938 239.972656 188.289062 238.996094 189.453125 M 192.21875 211.636719 C 191.261719 212.59375 191.949219 214.324219 193.289062 214.324219 C 194.691406 214.324219 195.417969 212.652344 194.460938 211.628906 C 193.894531 211.027344 192.828125 211.03125 192.21875 211.636719 " fill-opacity="1" fill-rule="evenodd"/></svg>